# xmcd
#
# Track frame offsets:
#	150
#	21559
#	44539
#	64309
#	83104
#	115049
#	138664
#	167129
#	185424
#	205544
#	237139
#
# Disc length: 3460 seconds
#
# Revision: 1
# Processed by: cddbd v1.5.1PL2 Copyright (c) Steve Scherf et al.
# Submitted via: EasyCDDAExtractor 9.0.0.1
#
DISCID=980d820b
DTITLE=Saxon - Astoria London 26-01-03 Disc 1
DYEAR=2003
DGENRE=Hard Rock
TTITLE0=Intro - Heavy Metal Thunder
TTITLE1=Dogs Of War
TTITLE2=Motorcycle Man
TTITLE3=Backs To The Wall
TTITLE4=Court Of The Crimson King
TTITLE5=Does This Town Know How to Rock
TTITLE6=Cut Out The Disease
TTITLE7=20 000 Ft
TTITLE8=And The Bands Played On
TTITLE9=Dallas 1 PM
TTITLE10=Battle Cry 
EXTD=
EXTT0=
EXTT1=
EXTT2=
EXTT3=
EXTT4=
EXTT5=
EXTT6=
EXTT7=
EXTT8=
EXTT9=
EXTT10=
PLAYORDER=
